<?xml version="1.0" encoding="UTF-8" standalone="no"?>
<!-- Created with Inkscape (http://www.inkscape.org/) -->

<svg
   version="1.1"
   id="svg1"
   width="666.66669"
   height="666.66669"
   viewBox="0 0 666.66669 666.66669"
   sodipodi:docname="16578c40-5deb-4ef1-8f7e-deed1bb5b2d3.ai"
   xmlns:inkscape="http://www.inkscape.org/namespaces/inkscape"
   xmlns:sodipodi="http://sodipodi.sourceforge.net/DTD/sodipodi-0.dtd"
   xmlns="http://www.w3.org/2000/svg"
   xmlns:svg="http://www.w3.org/2000/svg">
  <defs
     id="defs1">
    <clipPath
       clipPathUnits="userSpaceOnUse"
       id="clipPath3">
      <path
         d="M 0,500 H 500 V 0 H 0 Z"
         transform="translate(-347.06601,-235.08561)"
         id="path3" />
    </clipPath>
    <clipPath
       clipPathUnits="userSpaceOnUse"
       id="clipPath5">
      <path
         d="M 0,500 H 500 V 0 H 0 Z"
         transform="translate(-355.45471,-139.93721)"
         id="path5" />
    </clipPath>
    <clipPath
       clipPathUnits="userSpaceOnUse"
       id="clipPath7">
      <path
         d="M 0,500 H 500 V 0 H 0 Z"
         transform="translate(-361.91661,-207.58371)"
         id="path7" />
    </clipPath>
    <clipPath
       clipPathUnits="userSpaceOnUse"
       id="clipPath9">
      <path
         d="M 0,500 H 500 V 0 H 0 Z"
         transform="translate(-347.06601,-235.08561)"
         id="path9" />
    </clipPath>
    <clipPath
       clipPathUnits="userSpaceOnUse"
       id="clipPath11">
      <path
         d="M 0,500 H 500 V 0 H 0 Z"
         transform="translate(-318.65591,-151.98311)"
         id="path11" />
    </clipPath>
    <clipPath
       clipPathUnits="userSpaceOnUse"
       id="clipPath13">
      <path
         d="M 0,500 H 500 V 0 H 0 Z"
         transform="translate(-311.85511,-111.4421)"
         id="path13" />
    </clipPath>
    <clipPath
       clipPathUnits="userSpaceOnUse"
       id="clipPath15">
      <path
         d="M 0,500 H 500 V 0 H 0 Z"
         transform="translate(-318.65591,-151.98311)"
         id="path15" />
    </clipPath>
    <clipPath
       clipPathUnits="userSpaceOnUse"
       id="clipPath17">
      <path
         d="M 0,500 H 500 V 0 H 0 Z"
         transform="translate(-318.65591,-151.98311)"
         id="path17" />
    </clipPath>
    <clipPath
       clipPathUnits="userSpaceOnUse"
       id="clipPath19">
      <path
         d="M 0,500 H 500 V 0 H 0 Z"
         transform="translate(-240.58221,-267.5016)"
         id="path19" />
    </clipPath>
    <clipPath
       clipPathUnits="userSpaceOnUse"
       id="clipPath21">
      <path
         d="M 0,500 H 500 V 0 H 0 Z"
         transform="translate(-285.3727,-305.65551)"
         id="path21" />
    </clipPath>
    <clipPath
       clipPathUnits="userSpaceOnUse"
       id="clipPath23">
      <path
         d="M 0,500 H 500 V 0 H 0 Z"
         transform="translate(-310.32191,-363.21601)"
         id="path23" />
    </clipPath>
    <clipPath
       clipPathUnits="userSpaceOnUse"
       id="clipPath25">
      <path
         d="M 0,500 H 500 V 0 H 0 Z"
         transform="translate(-240.58221,-267.5016)"
         id="path25" />
    </clipPath>
    <clipPath
       clipPathUnits="userSpaceOnUse"
       id="clipPath27">
      <path
         d="M 0,500 H 500 V 0 H 0 Z"
         transform="translate(-233.1574,-193.74581)"
         id="path27" />
    </clipPath>
    <clipPath
       clipPathUnits="userSpaceOnUse"
       id="clipPath29">
      <path
         d="M 0,500 H 500 V 0 H 0 Z"
         transform="translate(-216.2374,-115.6022)"
         id="path29" />
    </clipPath>
    <clipPath
       clipPathUnits="userSpaceOnUse"
       id="clipPath31">
      <path
         d="M 0,500 H 500 V 0 H 0 Z"
         transform="translate(-178.6476,-199.4411)"
         id="path31" />
    </clipPath>
    <clipPath
       clipPathUnits="userSpaceOnUse"
       id="clipPath33">
      <path
         d="M 0,500 H 500 V 0 H 0 Z"
         transform="translate(-233.1574,-193.74581)"
         id="path33" />
    </clipPath>
    <clipPath
       clipPathUnits="userSpaceOnUse"
       id="clipPath35">
      <path
         d="M 0,500 H 500 V 0 H 0 Z"
         transform="translate(-259.49871,-187.0983)"
         id="path35" />
    </clipPath>
    <clipPath
       clipPathUnits="userSpaceOnUse"
       id="clipPath37">
      <path
         d="M 0,500 H 500 V 0 H 0 Z"
         transform="translate(-250.82971,-197.95481)"
         id="path37" />
    </clipPath>
    <clipPath
       clipPathUnits="userSpaceOnUse"
       id="clipPath39">
      <path
         d="M 0,500 H 500 V 0 H 0 Z"
         transform="translate(-344.44401,-244.13841)"
         id="path39" />
    </clipPath>
    <clipPath
       clipPathUnits="userSpaceOnUse"
       id="clipPath41">
      <path
         d="M 0,500 H 500 V 0 H 0 Z"
         transform="translate(-332.58561,-157.39721)"
         id="path41" />
    </clipPath>
    <clipPath
       clipPathUnits="userSpaceOnUse"
       id="clipPath43">
      <path
         d="M 0,500 H 500 V 0 H 0 Z"
         transform="translate(-227.37861,-130.2018)"
         id="path43" />
    </clipPath>
    <clipPath
       clipPathUnits="userSpaceOnUse"
       id="clipPath45">
      <path
         d="M 0,500 H 500 V 0 H 0 Z"
         transform="translate(-110.19201,-277.63841)"
         id="path45" />
    </clipPath>
    <clipPath
       clipPathUnits="userSpaceOnUse"
       id="clipPath47">
      <path
         d="M 0,500 H 500 V 0 H 0 Z"
         transform="translate(-105.18621,-274.4499)"
         id="path47" />
    </clipPath>
    <clipPath
       clipPathUnits="userSpaceOnUse"
       id="clipPath49">
      <path
         d="M 0,500 H 500 V 0 H 0 Z"
         transform="translate(-182.9479,-334.13101)"
         id="path49" />
    </clipPath>
    <clipPath
       clipPathUnits="userSpaceOnUse"
       id="clipPath51">
      <path
         d="M 0,500 H 500 V 0 H 0 Z"
         transform="translate(-185.421,-339.52611)"
         id="path51" />
    </clipPath>
    <clipPath
       clipPathUnits="userSpaceOnUse"
       id="clipPath53">
      <path
         d="M 0,500 H 500 V 0 H 0 Z"
         transform="translate(-262.93321,-327.73701)"
         id="path53" />
    </clipPath>
    <clipPath
       clipPathUnits="userSpaceOnUse"
       id="clipPath55">
      <path
         d="M 0,500 H 500 V 0 H 0 Z"
         transform="translate(-232.8844,-231.2985)"
         id="path55" />
    </clipPath>
    <clipPath
       clipPathUnits="userSpaceOnUse"
       id="clipPath57">
      <path
         d="M 0,500 H 500 V 0 H 0 Z"
         transform="translate(-262.93321,-327.73701)"
         id="path57" />
    </clipPath>
    <clipPath
       clipPathUnits="userSpaceOnUse"
       id="clipPath59">
      <path
         d="M 0,500 H 500 V 0 H 0 Z"
         transform="translate(-116.75751,-256.15401)"
         id="path59" />
    </clipPath>
    <clipPath
       clipPathUnits="userSpaceOnUse"
       id="clipPath61">
      <path
         d="M 0,500 H 500 V 0 H 0 Z"
         transform="translate(-133.2853,-265.79561)"
         id="path61" />
    </clipPath>
    <clipPath
       clipPathUnits="userSpaceOnUse"
       id="clipPath63">
      <path
         d="M 0,500 H 500 V 0 H 0 Z"
         transform="translate(-139.01721,-276.903)"
         id="path63" />
    </clipPath>
    <clipPath
       clipPathUnits="userSpaceOnUse"
       id="clipPath65">
      <path
         d="M 0,500 H 500 V 0 H 0 Z"
         transform="translate(-218.0353,-339.04461)"
         id="path65" />
    </clipPath>
    <clipPath
       clipPathUnits="userSpaceOnUse"
       id="clipPath67">
      <path
         d="M 0,500 H 500 V 0 H 0 Z"
         transform="translate(-204.73401,-325.29021)"
         id="path67" />
    </clipPath>
    <clipPath
       clipPathUnits="userSpaceOnUse"
       id="clipPath69">
      <path
         d="M 0,500 H 500 V 0 H 0 Z"
         transform="translate(-198.8112,-328.39281)"
         id="path69" />
    </clipPath>
    <clipPath
       clipPathUnits="userSpaceOnUse"
       id="clipPath71">
      <path
         d="M 0,500 H 500 V 0 H 0 Z"
         transform="translate(-188.358,-297.79461)"
         id="path71" />
    </clipPath>
    <clipPath
       clipPathUnits="userSpaceOnUse"
       id="clipPath73">
      <path
         d="M 0,500 H 500 V 0 H 0 Z"
         transform="translate(-182.63541,-295.9587)"
         id="path73" />
    </clipPath>
    <clipPath
       clipPathUnits="userSpaceOnUse"
       id="clipPath75">
      <path
         d="M 0,500 H 500 V 0 H 0 Z"
         transform="translate(-174.1149,-265.2087)"
         id="path75" />
    </clipPath>
    <clipPath
       clipPathUnits="userSpaceOnUse"
       id="clipPath77">
      <path
         d="M 0,500 H 500 V 0 H 0 Z"
         transform="translate(-109.3009,-317.44741)"
         id="path77" />
    </clipPath>
    <clipPath
       clipPathUnits="userSpaceOnUse"
       id="clipPath79">
      <path
         d="M 0,500 H 500 V 0 H 0 Z"
         transform="translate(-145.5748,-218.28291)"
         id="path79" />
    </clipPath>
    <clipPath
       clipPathUnits="userSpaceOnUse"
       id="clipPath81">
      <path
         d="M 0,500 H 500 V 0 H 0 Z"
         transform="translate(-210.20911,-240.10521)"
         id="path81" />
    </clipPath>
    <clipPath
       clipPathUnits="userSpaceOnUse"
       id="clipPath83">
      <path
         d="M 0,500 H 500 V 0 H 0 Z"
         transform="translate(-250.87371,-274.45091)"
         id="path83" />
    </clipPath>
    <clipPath
       clipPathUnits="userSpaceOnUse"
       id="clipPath85">
      <path
         d="M 0,500 H 500 V 0 H 0 Z"
         transform="translate(-179.0485,-228.7263)"
         id="path85" />
    </clipPath>
    <clipPath
       clipPathUnits="userSpaceOnUse"
       id="clipPath87">
      <path
         d="M 0,500 H 500 V 0 H 0 Z"
         transform="translate(-248.73841,-158.3141)"
         id="path87" />
    </clipPath>
    <clipPath
       clipPathUnits="userSpaceOnUse"
       id="clipPath89">
      <path
         d="M 0,500 H 500 V 0 H 0 Z"
         transform="translate(-288.5074,-152.38151)"
         id="path89" />
    </clipPath>
    <clipPath
       clipPathUnits="userSpaceOnUse"
       id="clipPath91">
      <path
         d="M 0,500 H 500 V 0 H 0 Z"
         transform="translate(-272.20471,-162.9284)"
         id="path91" />
    </clipPath>
    <clipPath
       clipPathUnits="userSpaceOnUse"
       id="clipPath93">
      <path
         d="M 0,500 H 500 V 0 H 0 Z"
         transform="translate(-240.71551,-163.9841)"
         id="path93" />
    </clipPath>
    <clipPath
       clipPathUnits="userSpaceOnUse"
       id="clipPath95">
      <path
         d="M 0,500 H 500 V 0 H 0 Z"
         transform="translate(-307.82091,-148.73111)"
         id="path95" />
    </clipPath>
    <clipPath
       clipPathUnits="userSpaceOnUse"
       id="clipPath97">
      <path
         d="M 0,500 H 500 V 0 H 0 Z"
         transform="translate(-115.3317,-329.91131)"
         id="path97" />
    </clipPath>
    <clipPath
       clipPathUnits="userSpaceOnUse"
       id="clipPath99">
      <path
         d="M 0,500 H 500 V 0 H 0 Z"
         transform="translate(-369.40491,-303.22581)"
         id="path99" />
    </clipPath>
    <clipPath
       clipPathUnits="userSpaceOnUse"
       id="clipPath101">
      <path
         d="M 0,500 H 500 V 0 H 0 Z"
         transform="translate(-381.01141,-264.18621)"
         id="path101" />
    </clipPath>
    <clipPath
       clipPathUnits="userSpaceOnUse"
       id="clipPath103">
      <path
         d="M 0,500 H 500 V 0 H 0 Z"
         transform="translate(-385.05241,-301.02511)"
         id="path103" />
    </clipPath>
    <clipPath
       clipPathUnits="userSpaceOnUse"
       id="clipPath105">
      <path
         d="M 0,500 H 500 V 0 H 0 Z"
         transform="translate(-383.05041,-260.34641)"
         id="path105" />
    </clipPath>
    <clipPath
       clipPathUnits="userSpaceOnUse"
       id="clipPath107">
      <path
         d="M 0,500 H 500 V 0 H 0 Z"
         transform="translate(-265.5094,-427.17161)"
         id="path107" />
    </clipPath>
    <clipPath
       clipPathUnits="userSpaceOnUse"
       id="clipPath109">
      <path
         d="M 0,500 H 500 V 0 H 0 Z"
         transform="translate(-277.1158,-376.98501)"
         id="path109" />
    </clipPath>
    <clipPath
       clipPathUnits="userSpaceOnUse"
       id="clipPath111">
      <path
         d="M 0,500 H 500 V 0 H 0 Z"
         transform="translate(-278.30241,-414.34931)"
         id="path111" />
    </clipPath>
    <clipPath
       clipPathUnits="userSpaceOnUse"
       id="clipPath113">
      <path
         d="M 0,500 H 500 V 0 H 0 Z"
         transform="translate(-274.0885,-377.30581)"
         id="path113" />
    </clipPath>
    <clipPath
       clipPathUnits="userSpaceOnUse"
       id="clipPath115">
      <path
         d="M 0,500 H 500 V 0 H 0 Z"
         transform="translate(-190.3927,-431.87181)"
         id="path115" />
    </clipPath>
    <clipPath
       clipPathUnits="userSpaceOnUse"
       id="clipPath117">
      <path
         d="M 0,500 H 500 V 0 H 0 Z"
         transform="translate(-221.38981,-431.65501)"
         id="path117" />
    </clipPath>
    <clipPath
       clipPathUnits="userSpaceOnUse"
       id="clipPath119">
      <path
         d="M 0,500 H 500 V 0 H 0 Z"
         transform="translate(-186.7462,-417.11881)"
         id="path119" />
    </clipPath>
    <clipPath
       clipPathUnits="userSpaceOnUse"
       id="clipPath121">
      <path
         d="M 0,500 H 500 V 0 H 0 Z"
         transform="translate(-223.35901,-424.15301)"
         id="path121" />
    </clipPath>
    <clipPath
       clipPathUnits="userSpaceOnUse"
       id="clipPath123">
      <path
         d="M 0,500 H 500 V 0 H 0 Z"
         transform="translate(-399.83851,-221.78781)"
         id="path123" />
    </clipPath>
    <clipPath
       clipPathUnits="userSpaceOnUse"
       id="clipPath125">
      <path
         d="M 0,500 H 500 V 0 H 0 Z"
         transform="translate(-419.50061,-211.4499)"
         id="path125" />
    </clipPath>
    <clipPath
       clipPathUnits="userSpaceOnUse"
       id="clipPath127">
      <path
         d="M 0,500 H 500 V 0 H 0 Z"
         transform="translate(-428.68911,-174.0759)"
         id="path127" />
    </clipPath>
    <clipPath
       clipPathUnits="userSpaceOnUse"
       id="clipPath129">
      <path
         d="M 0,500 H 500 V 0 H 0 Z"
         transform="translate(-462.94791,-159.36791)"
         id="path129" />
    </clipPath>
    <clipPath
       clipPathUnits="userSpaceOnUse"
       id="clipPath131">
      <path
         d="M 0,500 H 500 V 0 H 0 Z"
         transform="translate(-144.5499,-500.00511)"
         id="path131" />
    </clipPath>
    <clipPath
       clipPathUnits="userSpaceOnUse"
       id="clipPath133">
      <path
         d="M 0,500 H 500 V 0 H 0 Z"
         transform="translate(-222.63981,-434.04511)"
         id="path133" />
    </clipPath>
    <clipPath
       clipPathUnits="userSpaceOnUse"
       id="clipPath135">
      <path
         d="M 0,500 H 500 V 0 H 0 Z"
         transform="translate(-222.6403,-434.04511)"
         id="path135" />
    </clipPath>
    <clipPath
       clipPathUnits="userSpaceOnUse"
       id="clipPath137">
      <path
         d="M 0,500 H 500 V 0 H 0 Z"
         transform="translate(-267.7819,-391.91081)"
         id="path137" />
    </clipPath>
    <clipPath
       clipPathUnits="userSpaceOnUse"
       id="clipPath139">
      <path
         d="M 0,500 H 500 V 0 H 0 Z"
         transform="translate(-326.14901,-332.56321)"
         id="path139" />
    </clipPath>
    <clipPath
       clipPathUnits="userSpaceOnUse"
       id="clipPath141">
      <path
         d="M 0,500 H 500 V 0 H 0 Z"
         transform="translate(-415.87951,-228.5046)"
         id="path141" />
    </clipPath>
    <clipPath
       clipPathUnits="userSpaceOnUse"
       id="clipPath143">
      <path
         d="M 0,500 H 500 V 0 H 0 Z"
         transform="translate(-417.40591,-226.56021)"
         id="path143" />
    </clipPath>
    <clipPath
       clipPathUnits="userSpaceOnUse"
       id="clipPath145">
      <path
         d="M 0,500 H 500 V 0 H 0 Z"
         transform="translate(-450.31511,-183.5495)"
         id="path145" />
    </clipPath>
    <clipPath
       clipPathUnits="userSpaceOnUse"
       id="clipPath147">
      <path
         d="M 0,500 H 500 V 0 H 0 Z"
         transform="translate(-477.05331,-146.38541)"
         id="path147" />
    </clipPath>
    <clipPath
       clipPathUnits="userSpaceOnUse"
       id="clipPath149">
      <path
         d="M 0,500 H 500 V 0 H 0 Z"
         transform="translate(-138.1608,-492.39721)"
         id="path149" />
    </clipPath>
    <clipPath
       clipPathUnits="userSpaceOnUse"
       id="clipPath151">
      <path
         d="M 0,500 H 500 V 0 H 0 Z"
         transform="translate(-222.63981,-434.04511)"
         id="path151" />
    </clipPath>
    <clipPath
       clipPathUnits="userSpaceOnUse"
       id="clipPath153">
      <path
         d="M 0,500 H 500 V 0 H 0 Z"
         transform="translate(-222.6403,-434.04511)"
         id="path153" />
    </clipPath>
    <clipPath
       clipPathUnits="userSpaceOnUse"
       id="clipPath155">
      <path
         d="M 0,500 H 500 V 0 H 0 Z"
         transform="translate(-267.7819,-391.91081)"
         id="path155" />
    </clipPath>
    <clipPath
       clipPathUnits="userSpaceOnUse"
       id="clipPath157">
      <path
         d="M 0,500 H 500 V 0 H 0 Z"
         transform="translate(-326.14901,-332.56321)"
         id="path157" />
    </clipPath>
    <clipPath
       clipPathUnits="userSpaceOnUse"
       id="clipPath159">
      <path
         d="M 0,500 H 500 V 0 H 0 Z"
         transform="translate(-415.87951,-228.5046)"
         id="path159" />
    </clipPath>
    <clipPath
       clipPathUnits="userSpaceOnUse"
       id="clipPath161">
      <path
         d="M 0,500 H 500 V 0 H 0 Z"
         transform="translate(-417.40591,-226.56021)"
         id="path161" />
    </clipPath>
    <clipPath
       clipPathUnits="userSpaceOnUse"
       id="clipPath163">
      <path
         d="M 0,500 H 500 V 0 H 0 Z"
         transform="translate(-450.31511,-183.5495)"
         id="path163" />
    </clipPath>
    <clipPath
       clipPathUnits="userSpaceOnUse"
       id="clipPath165">
      <path
         d="M 0,500 H 500 V 0 H 0 Z"
         transform="translate(-496.63641,-117.7643)"
         id="path165" />
    </clipPath>
    <clipPath
       clipPathUnits="userSpaceOnUse"
       id="clipPath167">
      <path
         d="M 0,500 H 500 V 0 H 0 Z"
         transform="translate(-271.30531,-381.50261)"
         id="path167" />
    </clipPath>
    <clipPath
       clipPathUnits="userSpaceOnUse"
       id="clipPath169">
      <path
         d="M 0,500 H 500 V 0 H 0 Z"
         transform="translate(-307.45571,-343.49041)"
         id="path169" />
    </clipPath>
    <clipPath
       clipPathUnits="userSpaceOnUse"
       id="clipPath171">
      <path
         d="M 0,500 H 500 V 0 H 0 Z"
         transform="translate(-328.29941,-325.41471)"
         id="path171" />
    </clipPath>
    <clipPath
       clipPathUnits="userSpaceOnUse"
       id="clipPath173">
      <path
         d="M 0,500 H 500 V 0 H 0 Z"
         transform="translate(-351.26331,-296.05731)"
         id="path173" />
    </clipPath>
    <clipPath
       clipPathUnits="userSpaceOnUse"
       id="clipPath175">
      <path
         d="M 0,500 H 500 V 0 H 0 Z"
         transform="translate(-371.77701,-273.6408)"
         id="path175" />
    </clipPath>
    <clipPath
       clipPathUnits="userSpaceOnUse"
       id="clipPath177">
      <path
         d="M 0,500 H 500 V 0 H 0 Z"
         transform="translate(-400.70081,-239.71361)"
         id="path177" />
    </clipPath>
    <clipPath
       clipPathUnits="userSpaceOnUse"
       id="clipPath179">
      <path
         d="M 0,500 H 500 V 0 H 0 Z"
         transform="translate(-416.47911,-219.09251)"
         id="path179" />
    </clipPath>
    <clipPath
       clipPathUnits="userSpaceOnUse"
       id="clipPath181">
      <path
         d="M 0,500 H 500 V 0 H 0 Z"
         transform="translate(-431.98601,-201.9255)"
         id="path181" />
    </clipPath>
    <clipPath
       clipPathUnits="userSpaceOnUse"
       id="clipPath183">
      <path
         d="M 0,500 H 500 V 0 H 0 Z"
         transform="translate(-450.49671,-175.3679)"
         id="path183" />
    </clipPath>
    <clipPath
       clipPathUnits="userSpaceOnUse"
       id="clipPath185">
      <path
         d="M 0,500 H 500 V 0 H 0 Z"
         transform="translate(-468.31411,-147.3815)"
         id="path185" />
    </clipPath>
    <clipPath
       clipPathUnits="userSpaceOnUse"
       id="clipPath187">
      <path
         d="M 0,500 H 500 V 0 H 0 Z"
         transform="translate(-482.85511,-129.569)"
         id="path187" />
    </clipPath>
    <clipPath
       clipPathUnits="userSpaceOnUse"
       id="clipPath189">
      <path
         d="M 0,500 H 500 V 0 H 0 Z"
         transform="translate(-491.25741,-114.69791)"
         id="path189" />
    </clipPath>
    <clipPath
       clipPathUnits="userSpaceOnUse"
       id="clipPath191">
      <path
         d="M 0,500 H 500 V 0 H 0 Z"
         transform="translate(-238.5172,-410.90991)"
         id="path191" />
    </clipPath>
    <clipPath
       clipPathUnits="userSpaceOnUse"
       id="clipPath193">
      <path
         d="M 0,500 H 500 V 0 H 0 Z"
         transform="translate(-226.67541,-426.29461)"
         id="path193" />
    </clipPath>
    <clipPath
       clipPathUnits="userSpaceOnUse"
       id="clipPath195">
      <path
         d="M 0,500 H 500 V 0 H 0 Z"
         transform="translate(-191.4108,-452.12571)"
         id="path195" />
    </clipPath>
    <clipPath
       clipPathUnits="userSpaceOnUse"
       id="clipPath197">
      <path
         d="M 0,500 H 500 V 0 H 0 Z"
         transform="translate(-191.3185,-457.09341)"
         id="path197" />
    </clipPath>
    <clipPath
       clipPathUnits="userSpaceOnUse"
       id="clipPath199">
      <path
         d="M 0,500 H 500 V 0 H 0 Z"
         transform="translate(-174.30141,-467.00561)"
         id="path199" />
    </clipPath>
    <clipPath
       clipPathUnits="userSpaceOnUse"
       id="clipPath201">
      <path
         d="M 0,500 H 500 V 0 H 0 Z"
         transform="translate(-141.8488,-494.84591)"
         id="path201" />
    </clipPath>
    <clipPath
       clipPathUnits="userSpaceOnUse"
       id="clipPath203">
      <path
         d="M 0,500 H 500 V 0 H 0 Z"
         transform="translate(-164.0905,-480.40551)"
         id="path203" />
    </clipPath>
    <clipPath
       clipPathUnits="userSpaceOnUse"
       id="clipPath205">
      <path
         d="M 0,500 H 500 V 0 H 0 Z"
         transform="translate(-281.02401,-356.58171)"
         id="path205" />
    </clipPath>
    <clipPath
       clipPathUnits="userSpaceOnUse"
       id="clipPath207">
      <path
         d="M 0,500 H 500 V 0 H 0 Z"
         transform="translate(-291.40101,-347.99291)"
         id="path207" />
    </clipPath>
  </defs>
  <sodipodi:namedview
     id="namedview1"
     pagecolor="#ffffff"
     bordercolor="#000000"
     borderopacity="0.25"
     inkscape:showpageshadow="2"
     inkscape:pageopacity="0.0"
     inkscape:pagecheckerboard="0"
     inkscape:deskcolor="#d1d1d1">
    <inkscape:page
       x="0"
       y="0"
       inkscape:label="1"
       id="page1"
       width="666.66669"
       height="666.66669"
       margin="0"
       bleed="0" />
  </sodipodi:namedview>
  <g
     id="layer-MC0"
     inkscape:groupmode="layer"
     inkscape:label="BACKGROUND">
    <path
       id="path1"
       d="M 0,0 H 500 V 500 H 0 Z"
       style="fill:#fbe9e7;fill-opacity:1;fill-rule:nonzero;stroke:none"
       transform="matrix(1.3333333,0,0,-1.3333333,0,666.66667)" />
  </g>
  <g
     id="layer-MC1"
     inkscape:groupmode="layer"
     inkscape:label="OBJECTS">
    <path
       id="path2"
       d="m 0,0 c 17.811,-26.214 27.42,-57.916 27.16,-89.607 -0.066,-8.153 16.303,-17.713 11.872,-24.556 -4.431,-6.843 -30.645,-10.291 -38.178,-7.176 -5.289,2.187 -8.605,7.372 -11.583,12.258 -8,13.126 -15.999,26.251 -23.998,39.377"
       style="fill:#424242;fill-opacity:1;fill-rule:nonzero;stroke:none"
       transform="matrix(1.3333333,0,0,-1.3333333,462.75467,353.2192)"
       clip-path="url(#clipPath3)" />
    <path
       id="path4"
       d="M 0,0 C -3.723,-3.751 -7.292,-8.548 -12.674,-8.27 6.477,12.273 9.733,40.784 6.462,67.646 2.435,77.275 -2.522,86.514 -8.389,95.148 L -43.115,25.444 c 7.999,-13.126 15.998,-26.251 23.997,-39.377 1.57,-2.577 3.239,-5.233 5.237,-7.492 C -7.337,-15.557 -1.902,-8.449 0,0"
       style="fill:#000000;fill-opacity:1;fill-rule:nonzero;stroke:none"
       transform="matrix(1.3333333,0,0,-1.3333333,473.9396,480.08373)"
       clip-path="url(#clipPath5)" />
    <path
       id="path6"
       d="m 0,0 c 3.271,-26.862 0.015,-55.373 -19.136,-75.916 5.382,-0.278 8.951,4.519 12.674,8.27 -1.902,-8.45 -7.337,-15.557 -13.881,-21.425 1.791,-2.026 3.847,-3.733 6.346,-4.766 7.533,-3.115 33.747,0.333 38.178,7.176 4.431,6.843 -11.938,16.403 -11.871,24.556 C 12.483,-40.853 8.199,-19.604 0,0"
       style="fill:#424242;fill-opacity:1;fill-rule:nonzero;stroke:none"
       transform="matrix(1.3333333,0,0,-1.3333333,482.55547,389.8884)"
       clip-path="url(#clipPath7)" />
    <path
       id="path8"
       d="m 0,0 c 17.811,-26.214 27.42,-57.916 27.16,-89.607 -0.066,-8.153 16.303,-17.713 11.872,-24.556 -4.431,-6.843 -30.645,-10.291 -38.178,-7.176 -5.289,2.187 -8.605,7.372 -11.583,12.258 -8,13.126 -15.999,26.251 -23.998,39.377"
       style="fill:none;stroke:#000000;stroke-width:2;stroke-linecap:round;stroke-linejoin:round;stroke-miterlimit:10;stroke-dasharray:none;stroke-opacity:1"
       transform="matrix(1.3333333,0,0,-1.3333333,462.75467,353.2192)"
       clip-path="url(#clipPath9)" />
    <path
       id="path10"
       d="m 0,0 c 8.112,-28.866 7.219,-60.195 -2.526,-88.552 -2.508,-7.295 -4.557,-12.972 -10.587,-17.782 -6.031,-4.811 -16.226,-6.126 -22.051,-1.07 -4.088,3.55 -5.999,7.474 -7.204,12.753 -3.237,14.177 -14.754,53.933 -17.991,68.112"
       style="fill:#424242;fill-opacity:1;fill-rule:nonzero;stroke:none"
       transform="matrix(1.3333333,0,0,-1.3333333,424.87453,464.02253)"
       clip-path="url(#clipPath11)" />
    <path
       id="path12"
       d="m 0,0 c -14.017,-5.546 -31.392,-13.835 -46.999,-11.135 4.383,-16.094 9.453,-34.31 11.432,-42.975 1.205,-5.279 3.116,-9.203 7.204,-12.753 5.825,-5.056 16.02,-3.74 22.051,1.07 6.03,4.81 8.079,10.487 10.586,17.782 5.607,16.317 8.267,33.615 7.984,50.865 C 3.639,-7.537 -9.643,-14.896 -22.557,-18.471 -14.233,-13.206 -7.189,-6.108 0,0"
       style="fill:#424242;fill-opacity:1;fill-rule:nonzero;stroke:none"
       transform="matrix(1.3333333,0,0,-1.3333333,415.8068,518.0772)"
       clip-path="url(#clipPath13)" />
    <path
       id="path14"
       d="m 0,0 -60.359,-26.539 c 1.258,-5.513 3.77,-14.898 6.559,-25.137 15.608,-2.7 32.983,5.589 46.999,11.135 -7.189,-6.108 -14.233,-13.206 -22.556,-18.471 12.914,3.575 26.195,10.934 34.814,21.324 C 5.248,-24.958 3.445,-12.257 0,0"
       style="fill:#000000;fill-opacity:1;fill-rule:nonzero;stroke:none"
       transform="matrix(1.3333333,0,0,-1.3333333,424.87453,464.02253)"
       clip-path="url(#clipPath15)" />
    <path
       id="path16"
       d="m 0,0 c 8.112,-28.866 7.219,-60.195 -2.526,-88.552 -2.508,-7.295 -4.557,-12.972 -10.587,-17.782 -6.031,-4.811 -16.226,-6.126 -22.051,-1.07 -4.088,3.55 -5.999,7.474 -7.204,12.753 -3.237,14.177 -14.754,53.933 -17.991,68.112"
       style="fill:none;stroke:#000000;stroke-width:2;stroke-linecap:round;stroke-linejoin:round;stroke-miterlimit:10;stroke-dasharray:none;stroke-opacity:1"
       transform="matrix(1.3333333,0,0,-1.3333333,424.87453,464.02253)"
       clip-path="url(#clipPath17)" />
    <path
       id="path18"
       d="m 0,0 c 5.416,24.83 24.643,69.419 37.16,91.537 4.343,7.674 10.923,16.104 19.707,15.318 5.965,-0.533 10.792,-5.525 12.873,-11.141 2.082,-5.615 1.933,-11.782 1.598,-17.761 -1.84,-32.91 -8.527,-65.545 -19.775,-96.528"
       style="fill:#424242;fill-opacity:1;fill-rule:nonzero;stroke:none"
       transform="matrix(1.3333333,0,0,-1.3333333,320.77627,309.99787)"
       clip-path="url(#clipPath19)" />
    <path
       id="path20"
       d="M 0,0 C 0.581,-3.958 -1.807,-8.351 -2.215,-12.454 -4.567,3.569 -7.855,21.441 -17.082,35.064 -28.261,11.794 -40.62,-19.034 -44.791,-38.154 L 6.772,-56.729 c 3.957,10.897 7.336,22.003 10.151,33.25 -4.489,2.518 -9.298,4.471 -14.31,5.67 C 4.711,-11.437 0.871,-5.937 0,0"
       style="fill:#000000;fill-opacity:1;fill-rule:nonzero;stroke:none"
       transform="matrix(1.3333333,0,0,-1.3333333,380.49693,259.126)"
       clip-path="url(#clipPath21)" />
    <path
       id="path22"
       d="m 0,0 c -2.081,5.615 -6.908,10.608 -12.873,11.141 -8.783,0.786 -15.363,-7.644 -19.707,-15.318 -2.878,-5.087 -6.112,-11.369 -9.451,-18.319 9.226,-13.624 12.514,-31.496 14.867,-47.518 0.408,4.102 2.796,8.496 2.215,12.453 0.871,-5.936 4.711,-11.437 2.613,-17.809 5.012,-1.198 9.82,-3.151 14.31,-5.67 5.189,20.728 8.431,41.944 9.625,63.279 C 1.934,-11.782 2.082,-5.615 0,0"
       style="fill:#424242;fill-opacity:1;fill-rule:nonzero;stroke:none"
       transform="matrix(1.3333333,0,0,-1.3333333,413.76253,182.37867)"
       clip-path="url(#clipPath23)" />
    <path
       id="path24"
       d="m 0,0 c 5.416,24.83 24.643,69.419 37.16,91.537 4.343,7.674 10.923,16.104 19.707,15.318 5.965,-0.533 10.792,-5.525 12.873,-11.141 2.082,-5.615 1.933,-11.782 1.598,-17.761 -1.84,-32.91 -8.527,-65.545 -19.775,-96.528"
       style="fill:none;stroke:#000000;stroke-width:2;stroke-linecap:round;stroke-linejoin:round;stroke-miterlimit:10;stroke-dasharray:none;stroke-opacity:1"
       transform="matrix(1.3333333,0,0,-1.3333333,320.77627,309.99787)"
       clip-path="url(#clipPath25)" />
    <path
       id="path26"
       d="m 0,0 c 0.684,-25.404 -7.314,-73.3 -14.173,-97.771 -2.381,-8.49 -6.753,-18.25 -15.469,-19.589 -5.919,-0.91 -11.8,2.783 -15.165,7.737 -3.365,4.953 -4.697,10.977 -5.803,16.862 -6.088,32.395 -7.407,65.682 -3.9,98.456"
       style="fill:#424242;fill-opacity:1;fill-rule:nonzero;stroke:none"
       transform="matrix(1.3333333,0,0,-1.3333333,310.87653,408.33893)"
       clip-path="url(#clipPath27)" />
    <path
       id="path28"
       d="m 0,0 c -14.765,18.492 -28.8,37.099 -39.343,58.084 -0.732,-24.344 1.155,-48.766 5.653,-72.701 1.106,-5.886 2.438,-11.909 5.803,-16.862 3.365,-4.955 9.246,-8.647 15.165,-7.738 8.716,1.34 13.088,11.1 15.469,19.591 1.664,5.937 3.394,13.259 5.052,21.297 C 2.658,5.854 -1.914,10.646 -5.437,16.384 -3.576,10.593 -1.861,5.791 0,0"
       style="fill:#424242;fill-opacity:1;fill-rule:nonzero;stroke:none"
       transform="matrix(1.3333333,0,0,-1.3333333,288.31653,512.5304)"
       clip-path="url(#clipPath29)" />
    <path
       id="path30"
       d="M 0,0 C -0.916,-8.558 -1.494,-17.151 -1.753,-25.755 8.79,-46.74 22.825,-65.347 37.59,-83.839 c -1.861,5.791 -3.576,10.593 -5.437,16.384 3.523,-5.738 8.095,-10.53 13.236,-14.713 5.176,25.096 9.638,57.231 9.121,76.473 z"
       style="fill:#000000;fill-opacity:1;fill-rule:nonzero;stroke:none"
       transform="matrix(1.3333333,0,0,-1.3333333,238.1968,400.7452)"
       clip-path="url(#clipPath31)" />
    <path
       id="path32"
       d="m 0,0 c 0.684,-25.404 -7.314,-73.3 -14.173,-97.771 -2.381,-8.49 -6.753,-18.25 -15.469,-19.589 -5.919,-0.91 -11.8,2.783 -15.165,7.737 -3.365,4.953 -4.697,10.977 -5.803,16.862 -6.088,32.395 -7.407,65.682 -3.9,98.456"
       style="fill:none;stroke:#000000;stroke-width:2;stroke-linecap:round;stroke-linejoin:round;stroke-miterlimit:10;stroke-dasharray:none;stroke-opacity:1"
       transform="matrix(1.3333333,0,0,-1.3333333,310.87653,408.33893)"
       clip-path="url(#clipPath33)" />
    <path
       id="path34"
       d="M 0,0 C 20.573,23.531 32.059,55.586 33.182,87.695 16.83,93.092 -0.12,96.758 -17.273,96.327 -38.586,95.791 -60.375,88.318 -74.895,72.707 -105.04,40.293 -85.576,-2.396 -58.517,-32.718 -35.796,-29.301 -14.687,-16.725 0,0"
       style="fill:#424242;fill-opacity:1;fill-rule:nonzero;stroke:none"
       transform="matrix(1.3333333,0,0,-1.3333333,345.99827,417.20227)"
       clip-path="url(#clipPath35)" />
    <path
       id="path36"
       d="M 0,0 C -4.802,-1.715 -9.458,-4.42 -15.395,-5.291 -4.248,1.398 5.329,11.9 10.657,23.8 10.249,19.697 9.985,14.604 10.566,10.647 27.098,30.789 30.465,55.986 28.974,80.654 16.665,83.862 4.087,85.789 -8.604,85.47 -29.917,84.935 -51.707,77.462 -66.226,61.851 -96.371,29.437 -76.907,-13.252 -49.848,-43.574 c 8.727,1.312 17.211,3.986 25.19,7.718 -6.554,4.906 -12.38,10.785 -17.133,17.594 C -27.095,-15.095 -10.275,-12.626 0,0"
       style="fill:#000000;fill-opacity:1;fill-rule:nonzero;stroke:none"
       transform="matrix(1.3333333,0,0,-1.3333333,334.4396,402.72693)"
       clip-path="url(#clipPath37)" />
    <path
       id="path38"
       d="m 0,0 c -9.33,13.277 -24.81,20.69 -39.977,26.459 -3.889,1.479 -7.821,2.887 -11.787,4.196 -1.123,-32.109 -12.608,-64.164 -33.181,-87.695 -14.687,-16.725 -35.796,-29.301 -58.517,-32.718 8.484,-9.508 17.713,-17.802 26.397,-24.179 22.874,-16.798 54.876,-24.307 79.975,-11.06 20.745,10.948 32.711,33.441 40.034,55.726 C 10.434,-46.479 13.793,-19.629 0,0"
       style="fill:#ffffff;fill-opacity:1;fill-rule:nonzero;stroke:none"
       transform="matrix(1.3333333,0,0,-1.3333333,459.25867,341.1488)"
       clip-path="url(#clipPath39)" />
    <path
       id="path40"
       d="m 0,0 c -22.121,-21.439 -50.496,-34.7 -80.786,-28.028 17.518,4.592 37.598,5.517 51.83,18.724 -26.033,-7.701 -55.776,-2.228 -77.458,14.005 -7.979,-3.731 -16.463,-6.405 -25.19,-7.718 8.484,-9.507 17.714,-17.801 26.397,-24.178 22.874,-16.799 54.876,-24.308 79.976,-11.061 20.745,10.948 32.71,33.442 40.034,55.727 0.053,0.164 0.105,0.331 0.159,0.495 C 10.873,11.646 5.96,5.624 0,0"
       style="fill:#e2dbf1;fill-opacity:1;fill-rule:nonzero;stroke:none"
       transform="matrix(1.3333333,0,0,-1.3333333,443.44747,456.80373)"
       clip-path="url(#clipPath41)" />
    <path
       id="path42"
       d="m 0,0 c 22.874,-16.799 54.876,-24.308 79.976,-11.062 20.745,10.95 32.711,33.443 40.034,55.728 7.489,22.792 10.848,49.642 -2.945,69.271 -9.33,13.276 -24.809,20.69 -39.976,26.459 -19.927,7.579 -40.929,13.363 -62.242,12.827 -21.313,-0.536 -43.102,-8.008 -57.621,-23.619 C -82.372,87.026 -36.375,26.714 0,0 Z"
       style="fill:none;stroke:#000000;stroke-width:2;stroke-linecap:round;stroke-linejoin:round;stroke-miterlimit:10;stroke-dasharray:none;stroke-opacity:1"
       transform="matrix(1.3333333,0,0,-1.3333333,303.17147,493.06427)"
       clip-path="url(#clipPath43)" />
    <path
       id="path44"
       d="m 0,0 c 8.818,-13.845 5.378,-31.812 -7.683,-40.132 -13.061,-8.319 -30.798,-3.84 -39.616,10.006 -8.819,13.845 -5.379,31.812 7.682,40.131 C -26.556,18.324 -8.818,13.845 0,0"
       style="fill:#424242;fill-opacity:1;fill-rule:nonzero;stroke:#000000;stroke-width:2;stroke-linecap:round;stroke-linejoin:round;stroke-miterlimit:10;stroke-dasharray:none;stroke-opacity:1"
       transform="matrix(1.3333333,0,0,-1.3333333,146.92267,296.48213)"
       clip-path="url(#clipPath45)" />
    <path
       id="path46"
       d="m 0,0 c 6.334,-9.945 3.864,-22.852 -5.519,-28.828 -9.382,-5.976 -22.123,-2.758 -28.458,7.187 -6.334,9.946 -3.863,22.852 5.519,28.828 C -19.076,13.163 -6.334,9.945 0,0"
       style="fill:#000000;fill-opacity:1;fill-rule:nonzero;stroke:none"
       transform="matrix(1.3333333,0,0,-1.3333333,140.24827,300.73347)"
       clip-path="url(#clipPath47)" />
    <path
       id="path48"
       d="M 0,0 C -14.921,6.841 -21.786,23.798 -15.333,37.875 -8.879,51.952 8.449,57.818 23.37,50.977 38.292,44.136 45.156,27.179 38.703,13.103 32.25,-0.975 14.921,-6.84 0,0"
       style="fill:#424242;fill-opacity:1;fill-rule:nonzero;stroke:#000000;stroke-width:2;stroke-linecap:round;stroke-linejoin:round;stroke-miterlimit:10;stroke-dasharray:none;stroke-opacity:1"
       transform="matrix(1.3333333,0,0,-1.3333333,243.93053,221.15867)"
       clip-path="url(#clipPath49)" />
    <path
       id="path50"
       d="M 0,0 C -10.719,4.914 -15.649,17.095 -11.014,27.207 -6.378,37.319 6.069,41.532 16.788,36.619 27.506,31.705 32.438,19.524 27.802,9.412 23.166,-0.7 10.719,-4.914 0,0"
       style="fill:#000000;fill-opacity:1;fill-rule:nonzero;stroke:none"
       transform="matrix(1.3333333,0,0,-1.3333333,247.228,213.9652)"
       clip-path="url(#clipPath51)" />
    <path
       id="path52"
       d="m 0,0 c 25.517,-40.062 10.278,-95.42 -34.036,-123.645 -44.315,-28.225 -100.923,-18.629 -126.441,21.433 -25.516,40.062 -10.278,95.42 34.037,123.645 C -82.126,49.658 -25.517,40.062 0,0"
       style="fill:#ffffff;fill-opacity:1;fill-rule:nonzero;stroke:none"
       transform="matrix(1.3333333,0,0,-1.3333333,350.5776,229.684)"
       clip-path="url(#clipPath53)" />
    <path
       id="path54"
       d="M 0,0 C 6.552,10.064 15.543,18.148 14.166,31.411 -3.129,8.612 -26.825,-17.086 -57.697,-16.718 c 9.605,-2.13 19.819,-1.516 30.033,-0.902 -30.391,-16.064 -70.58,-8.7 -100.349,8.276 26.536,-37.039 81.059,-45.228 124.026,-17.862 C 38.25,-0.304 54.073,51.248 33.368,90.71 34.748,57.661 23.975,24.329 0,0"
       style="fill:#e2dbf1;fill-opacity:1;fill-rule:nonzero;stroke:none"
       transform="matrix(1.3333333,0,0,-1.3333333,310.51253,358.26867)"
       clip-path="url(#clipPath55)" />
    <path
       id="path56"
       d="m 0,0 c 25.517,-40.062 10.278,-95.42 -34.036,-123.645 -44.315,-28.225 -100.923,-18.629 -126.441,21.433 -25.516,40.062 -10.278,95.42 34.037,123.645 C -82.126,49.658 -25.517,40.062 0,0 Z"
       style="fill:none;stroke:#000000;stroke-width:2;stroke-linecap:round;stroke-linejoin:round;stroke-miterlimit:10;stroke-dasharray:none;stroke-opacity:1"
       transform="matrix(1.3333333,0,0,-1.3333333,350.5776,229.684)"
       clip-path="url(#clipPath57)" />
    <path
       id="path58"
       d="m 0,0 c 0.154,-4.312 0.994,-8.821 3.949,-12.506 2.954,-3.684 8.484,-6.285 13.411,-5.235 6.187,1.319 8.661,7.238 10.267,12.396 2.354,7.56 4.708,15.12 7.061,22.68 1.635,5.251 2.598,10.925 -3.046,15.159 C 26.643,36.245 18.441,37.103 13.251,34.09 2.68,27.953 -0.363,10.209 0,0"
       style="fill:#424242;fill-opacity:1;fill-rule:nonzero;stroke:none"
       transform="matrix(1.3333333,0,0,-1.3333333,155.67667,325.128)"
       clip-path="url(#clipPath59)" />
    <path
       id="path60"
       d="M 0,0 C 6.224,-2.385 13.154,0.67 15.479,6.823 17.805,12.976 14.645,19.897 8.421,22.282 2.198,24.667 -4.732,21.612 -7.058,15.459 -9.383,9.307 -6.224,2.385 0,0"
       style="fill:#000000;fill-opacity:1;fill-rule:nonzero;stroke:none"
       transform="matrix(1.3333333,0,0,-1.3333333,177.71373,312.27253)"
       clip-path="url(#clipPath61)" />
    <path
       id="path62"
       d="M 0,0 C 2.384,-0.913 5.038,0.257 5.929,2.613 6.82,4.97 5.609,7.621 3.226,8.535 0.842,9.448 -1.812,8.278 -2.703,5.921 -3.594,3.564 -2.384,0.914 0,0"
       style="fill:#ffffff;fill-opacity:1;fill-rule:nonzero;stroke:none"
       transform="matrix(1.3333333,0,0,-1.3333333,185.35627,297.46267)"
       clip-path="url(#clipPath63)" />
    <path
       id="path64"
       d="m 0,0 c 4.152,-1.176 8.331,-3.067 11.205,-6.814 2.875,-3.748 4.084,-9.738 1.89,-14.273 -2.755,-5.694 -9.094,-6.687 -14.486,-7.018 -7.903,-0.485 -15.806,-0.97 -23.709,-1.454 -5.49,-0.337 -11.229,0.08 -13.997,6.57 -2.451,5.749 -1.33,13.919 2.832,18.241 C -27.787,4.057 -9.829,2.785 0,0"
       style="fill:#424242;fill-opacity:1;fill-rule:nonzero;stroke:none"
       transform="matrix(1.3333333,0,0,-1.3333333,290.71373,214.6072)"
       clip-path="url(#clipPath65)" />
    <path
       id="path66"
       d="m 0,0 c 0.833,-6.613 -3.785,-12.616 -10.314,-13.408 -6.53,-0.793 -12.499,3.925 -13.333,10.537 -0.833,6.613 3.784,12.616 10.314,13.409 C -6.803,11.33 -0.833,6.612 0,0"
       style="fill:#000000;fill-opacity:1;fill-rule:nonzero;stroke:none"
       transform="matrix(1.3333333,0,0,-1.3333333,272.97867,232.9464)"
       clip-path="url(#clipPath67)" />
    <path
       id="path68"
       d="m 0,0 c 0.319,-2.533 -1.449,-4.832 -3.95,-5.136 -2.502,-0.303 -4.788,1.504 -5.107,4.036 -0.319,2.533 1.45,4.832 3.951,5.136 C -2.605,4.34 -0.319,2.533 0,0"
       style="fill:#ffffff;fill-opacity:1;fill-rule:nonzero;stroke:none"
       transform="matrix(1.3333333,0,0,-1.3333333,265.0816,228.8096)"
       clip-path="url(#clipPath69)" />
    <path
       id="path70"
       d="m 0,0 c 2.64,-2.935 0.679,-8.719 -4.379,-12.921 -5.059,-4.203 -11.299,-5.23 -13.939,-2.296 -2.64,2.934 -0.679,8.719 4.38,12.921 C -8.88,1.906 -2.64,2.934 0,0"
       style="fill:#000000;fill-opacity:1;fill-rule:nonzero;stroke:none"
       transform="matrix(1.3333333,0,0,-1.3333333,251.144,269.6072)"
       clip-path="url(#clipPath71)" />
    <path
       id="path72"
       d="m 0,0 c 1.011,-1.124 0.26,-3.34 -1.677,-4.949 -1.938,-1.61 -4.328,-2.003 -5.339,-0.88 -1.011,1.124 -0.26,3.34 1.677,4.95 C -3.401,0.73 -1.011,1.124 0,0"
       style="fill:#424242;fill-opacity:1;fill-rule:nonzero;stroke:none"
       transform="matrix(1.3333333,0,0,-1.3333333,243.51387,272.05507)"
       clip-path="url(#clipPath73)" />
    <path
       id="path74"
       d="m 0,0 c 4.676,0.808 8.831,4.166 10.602,8.569 1.77,4.404 1.098,9.702 -1.717,13.524 2.875,-3.266 7.627,-4.751 11.85,-3.701 4.223,1.05 7.727,4.587 8.738,8.819"
       style="fill:none;stroke:#000000;stroke-width:2;stroke-linecap:round;stroke-linejoin:round;stroke-miterlimit:10;stroke-dasharray:none;stroke-opacity:1"
       transform="matrix(1.3333333,0,0,-1.3333333,232.1532,313.05507)"
       clip-path="url(#clipPath75)" />
    <path
       id="path76"
       d="m 0,0 c -1.153,6.385 -0.722,13.051 1.245,19.234 1.213,3.816 3.047,7.509 5.862,10.355 2.816,2.848 6.699,4.779 10.702,4.682 4.003,-0.096 8.015,-2.457 9.532,-6.163 -2.596,0.619 -5.528,-1.053 -6.317,-3.603 -0.789,-2.548 0.685,-5.584 3.176,-6.541"
       style="fill:#ffffff;fill-opacity:1;fill-rule:nonzero;stroke:#000000;stroke-width:2;stroke-linecap:round;stroke-linejoin:round;stroke-miterlimit:10;stroke-dasharray:none;stroke-opacity:1"
       transform="matrix(1.3333333,0,0,-1.3333333,145.73453,243.40347)"
       clip-path="url(#clipPath77)" />
    <path
       id="path78"
       d="m 0,0 c 2.167,0.035 4.143,-0.129 6.096,-0.274 l 5.754,-0.505 5.749,-0.551 c 1.946,-0.213 3.919,-0.414 6.044,-0.851 -1.812,-1.202 -3.832,-1.882 -5.891,-2.291 -2.063,-0.394 -4.18,-0.485 -6.269,-0.289 C 9.394,-4.566 7.329,-4.09 5.374,-3.324 3.424,-2.546 1.563,-1.509 0,0"
       style="fill:#e2dbf1;fill-opacity:1;fill-rule:nonzero;stroke:none"
       transform="matrix(1.3333333,0,0,-1.3333333,194.09973,375.6228)"
       clip-path="url(#clipPath79)" />
    <path
       id="path80"
       d="m 0,0 c 2.074,1.793 4.056,3.412 5.933,5.114 1.882,1.688 3.665,3.421 5.369,5.23 1.702,1.811 3.328,3.691 4.903,5.669 1.587,1.974 3.089,4.046 4.762,6.219 C 20.859,19.482 20.05,16.825 18.876,14.353 17.688,11.884 16.101,9.598 14.211,7.601 12.323,5.602 10.136,3.883 7.74,2.553 5.341,1.237 2.737,0.273 0,0"
       style="fill:#e2dbf1;fill-opacity:1;fill-rule:nonzero;stroke:none"
       transform="matrix(1.3333333,0,0,-1.3333333,280.2788,346.5264)"
       clip-path="url(#clipPath81)" />
    <path
       id="path82"
       d="m 0,0 c 0.048,2.458 0.324,4.747 0.598,7.016 0.287,2.263 0.603,4.487 0.936,6.709 0.331,2.223 0.685,4.441 1.076,6.688 0.407,2.249 0.818,4.517 1.502,6.88 0.979,-2.261 1.436,-4.635 1.64,-7.017 C 5.942,17.892 5.848,15.491 5.488,13.13 5.13,10.769 4.514,8.446 3.63,6.224 2.731,4.008 1.598,1.875 0,0"
       style="fill:#e2dbf1;fill-opacity:1;fill-rule:nonzero;stroke:none"
       transform="matrix(1.3333333,0,0,-1.3333333,334.49827,300.73213)"
       clip-path="url(#clipPath83)" />
    <path
       id="path84"
       d="m 0,0 c 1.518,0.355 2.787,0.541 4.016,0.739 l 3.541,0.525 3.546,0.488 c 1.234,0.152 2.505,0.326 4.064,0.404 C 14.562,0.707 13.477,-0.371 12.244,-1.179 11.001,-1.979 9.582,-2.492 8.12,-2.695 6.659,-2.901 5.153,-2.805 3.737,-2.383 2.329,-1.949 0.987,-1.218 0,0"
       style="fill:#e2dbf1;fill-opacity:1;fill-rule:nonzero;stroke:none"
       transform="matrix(1.3333333,0,0,-1.3333333,238.73133,361.69827)"
       clip-path="url(#clipPath85)" />
    <path
       id="path86"
       d="m 0,0 c 2.763,-0.291 5.349,-0.736 7.925,-1.122 2.569,-0.4 5.106,-0.771 7.648,-1.103 2.543,-0.33 5.089,-0.626 7.674,-0.902 2.587,-0.29 5.201,-0.528 7.947,-0.965 -2.509,-1.213 -5.203,-1.853 -7.926,-2.179 -2.726,-0.313 -5.492,-0.279 -8.215,0.082 -2.722,0.359 -5.404,1.04 -7.957,2.044 C 4.55,-3.126 2.112,-1.813 0,0"
       style="fill:#e2dbf1;fill-opacity:1;fill-rule:nonzero;stroke:none"
       transform="matrix(1.3333333,0,0,-1.3333333,331.6512,455.5812)"
       clip-path="url(#clipPath87)" />
    <path
       id="path88"
       d="m 0,0 c 1.864,1.342 3.757,2.362 5.648,3.34 1.896,0.961 3.796,1.841 5.719,2.67 1.923,0.83 3.87,1.602 5.871,2.316 2.011,0.702 4.054,1.37 6.313,1.796 C 22.17,8.28 20.485,6.821 18.694,5.538 16.894,4.268 14.964,3.199 12.946,2.336 10.93,1.472 8.827,0.807 6.666,0.375 4.502,-0.041 2.285,-0.26 0,0"
       style="fill:#e2dbf1;fill-opacity:1;fill-rule:nonzero;stroke:none"
       transform="matrix(1.3333333,0,0,-1.3333333,384.67653,463.49133)"
       clip-path="url(#clipPath89)" />
    <path
       id="path90"
       d="m 0,0 c 2.359,0.394 4.549,0.628 6.705,0.934 2.152,0.29 4.255,0.618 6.349,0.999 2.093,0.382 4.176,0.812 6.294,1.296 C 21.474,3.7 23.606,4.246 25.956,4.7 24.467,2.817 22.536,1.396 20.455,0.285 18.364,-0.815 16.096,-1.584 13.767,-2.002 11.437,-2.422 9.044,-2.498 6.7,-2.201 4.362,-1.889 2.057,-1.235 0,0"
       style="fill:#e2dbf1;fill-opacity:1;fill-rule:nonzero;stroke:none"
       transform="matrix(1.3333333,0,0,-1.3333333,362.9396,449.4288)"
       clip-path="url(#clipPath91)" />
    <path
       id="path92"
       d="M 0,0 C 0.754,0.608 1.374,0.843 1.953,0.965 2.527,1.07 3.048,1.028 3.523,0.861 3.999,0.693 4.428,0.395 4.804,-0.052 5.174,-0.513 5.503,-1.089 5.697,-2.043 4.941,-2.656 4.321,-2.893 3.742,-3.013 3.168,-3.118 2.647,-3.076 2.174,-2.904 1.7,-2.731 1.271,-2.433 0.896,-1.986 0.525,-1.524 0.195,-0.949 0,0"
       style="fill:#e2dbf1;fill-opacity:1;fill-rule:nonzero;stroke:none"
       transform="matrix(1.3333333,0,0,-1.3333333,320.954,448.0212)"
       clip-path="url(#clipPath93)" />
    <path
       id="path94"
       d="m 0,0 c 1.834,1.888 3.636,3.56 5.362,5.277 1.733,1.704 3.398,3.417 5.015,5.177 1.616,1.76 3.186,3.56 4.741,5.427 1.569,1.862 3.087,3.795 4.823,5.776 -0.201,-2.634 -1.035,-5.14 -2.18,-7.482 C 16.601,11.837 15.093,9.667 13.319,7.745 11.546,5.822 9.508,4.142 7.274,2.794 5.034,1.46 2.605,0.422 0,0"
       style="fill:#e2dbf1;fill-opacity:1;fill-rule:nonzero;stroke:none"
       transform="matrix(1.3333333,0,0,-1.3333333,410.42787,468.35853)"
       clip-path="url(#clipPath95)" />
    <path
       id="path96"
       d="m 0,0 c -0.961,1.513 -1.242,3.33 -1.103,5.087 0.151,1.763 0.747,3.49 1.685,4.998 0.935,1.511 2.223,2.807 3.739,3.721 1.515,0.902 3.272,1.45 5.055,1.25 C 8.219,13.704 7.249,12.575 6.37,11.419 5.491,10.276 4.71,9.14 3.976,7.971 3.246,6.8 2.571,5.597 1.933,4.304 1.282,3.005 0.698,1.635 0,0"
       style="fill:#e2dbf1;fill-opacity:1;fill-rule:nonzero;stroke:none"
       transform="matrix(1.3333333,0,0,-1.3333333,153.7756,226.78493)"
       clip-path="url(#clipPath97)" />
    <path
       id="path98"
       d="m 0,0 c -4.441,4.741 -6.658,11.484 -5.896,17.935 0.762,6.451 4.49,12.492 9.914,16.067 C 9.947,23.258 7.783,9.488 0,0"
       style="fill:#7cb342;fill-opacity:1;fill-rule:nonzero;stroke:#000000;stroke-width:2;stroke-linecap:round;stroke-linejoin:round;stroke-miterlimit:10;stroke-dasharray:none;stroke-opacity:1"
       transform="matrix(1.3333333,0,0,-1.3333333,492.53987,262.3656)"
       clip-path="url(#clipPath99)" />
    <path
       id="path100"
       d="M 0,0 C -8.47,16.416 -12.546,35.072 -11.695,53.524"
       style="fill:none;stroke:#000000;stroke-width:2;stroke-linecap:round;stroke-linejoin:round;stroke-miterlimit:10;stroke-dasharray:none;stroke-opacity:1"
       transform="matrix(1.3333333,0,0,-1.3333333,508.0152,314.4184)"
       clip-path="url(#clipPath101)" />
    <path
       id="path102"
       d="M 0,0 C -2.617,5.946 -2.471,13.042 0.389,18.875 3.248,24.708 8.768,29.17 15.071,30.744 17.1,18.641 10.49,6.369 0,0"
       style="fill:#7cb342;fill-opacity:1;fill-rule:nonzero;stroke:#000000;stroke-width:2;stroke-linecap:round;stroke-linejoin:round;stroke-miterlimit:10;stroke-dasharray:none;stroke-opacity:1"
       transform="matrix(1.3333333,0,0,-1.3333333,513.4032,265.29987)"
       clip-path="url(#clipPath103)" />
    <path
       id="path104"
       d="M 0,0 C -2.544,18.295 -0.2,37.248 6.724,54.373"
       style="fill:none;stroke:#000000;stroke-width:2;stroke-linecap:round;stroke-linejoin:round;stroke-miterlimit:10;stroke-dasharray:none;stroke-opacity:1"
       transform="matrix(1.3333333,0,0,-1.3333333,510.73387,319.53813)"
       clip-path="url(#clipPath105)" />
    <path
       id="path106"
       d="M 0,0 C -4.441,6.094 -6.658,14.763 -5.896,23.056 -5.134,31.35 -1.406,39.115 4.018,43.71 9.947,29.898 7.783,12.197 0,0"
       style="fill:#7cb342;fill-opacity:1;fill-rule:nonzero;stroke:#000000;stroke-width:2;stroke-linecap:round;stroke-linejoin:round;stroke-miterlimit:10;stroke-dasharray:none;stroke-opacity:1"
       transform="matrix(1.3333333,0,0,-1.3333333,354.01253,97.104533)"
       clip-path="url(#clipPath107)" />
    <path
       id="path108"
       d="M 0,0 C -8.47,21.103 -12.546,45.086 -11.695,68.807"
       style="fill:none;stroke:#000000;stroke-width:2;stroke-linecap:round;stroke-linejoin:round;stroke-miterlimit:10;stroke-dasharray:none;stroke-opacity:1"
       transform="matrix(1.3333333,0,0,-1.3333333,369.48773,164.02)"
       clip-path="url(#clipPath109)" />
    <path
       id="path110"
       d="m 0,0 c -2.244,5.762 -1.709,12.249 1.424,17.253 3.133,5.004 8.805,8.434 15.088,9.123 C 17.839,15.042 10.663,4.583 0,0"
       style="fill:#7cb342;fill-opacity:1;fill-rule:nonzero;stroke:#000000;stroke-width:2;stroke-linecap:round;stroke-linejoin:round;stroke-miterlimit:10;stroke-dasharray:none;stroke-opacity:1"
       transform="matrix(1.3333333,0,0,-1.3333333,371.06987,114.20093)"
       clip-path="url(#clipPath111)" />
    <path
       id="path112"
       d="M 0,0 C -1.491,17.072 1.859,34.162 9.611,49.03"
       style="fill:none;stroke:#000000;stroke-width:2;stroke-linecap:round;stroke-linejoin:round;stroke-miterlimit:10;stroke-dasharray:none;stroke-opacity:1"
       transform="matrix(1.3333333,0,0,-1.3333333,365.45133,163.59227)"
       clip-path="url(#clipPath113)" />
    <path
       id="path114"
       d="m 0,0 c -4.566,-2.363 -9.976,-2.493 -14.389,-0.344 -4.414,2.149 -7.75,6.536 -8.874,11.67 C -14.009,13.422 -4.73,8.412 0,0"
       style="fill:#7cb342;fill-opacity:1;fill-rule:nonzero;stroke:#000000;stroke-width:2;stroke-linecap:round;stroke-linejoin:round;stroke-miterlimit:10;stroke-dasharray:none;stroke-opacity:1"
       transform="matrix(1.3333333,0,0,-1.3333333,253.85693,90.8376)"
       clip-path="url(#clipPath115)" />
    <path
       id="path116"
       d="M 0,0 C -13.983,-2.738 -28.407,-1.476 -41.383,3.622"
       style="fill:none;stroke:#000000;stroke-width:2;stroke-linecap:round;stroke-linejoin:round;stroke-miterlimit:10;stroke-dasharray:none;stroke-opacity:1"
       transform="matrix(1.3333333,0,0,-1.3333333,295.1864,91.126667)"
       clip-path="url(#clipPath117)" />
    <path
       id="path118"
       d="m 0,0 c -5.917,1.797 -12.343,0.768 -17.094,-2.739 -4.75,-3.507 -7.736,-9.425 -7.943,-15.741 C -13.634,-18.937 -3.755,-10.983 0,0"
       style="fill:#7cb342;fill-opacity:1;fill-rule:nonzero;stroke:#000000;stroke-width:2;stroke-linecap:round;stroke-linejoin:round;stroke-miterlimit:10;stroke-dasharray:none;stroke-opacity:1"
       transform="matrix(1.3333333,0,0,-1.3333333,248.99493,110.50827)"
       clip-path="url(#clipPath119)" />
    <path
       id="path120"
       d="M 0,0 C -17.136,0.181 -33.92,-4.466 -48.152,-13.332"
       style="fill:none;stroke:#000000;stroke-width:2;stroke-linecap:round;stroke-linejoin:round;stroke-miterlimit:10;stroke-dasharray:none;stroke-opacity:1"
       transform="matrix(1.3333333,0,0,-1.3333333,297.812,101.12933)"
       clip-path="url(#clipPath121)" />
    <path
       id="path122"
       d="M 0,0 C -2.087,3.036 -5.462,4.946 -8.977,5.08 -12.492,5.214 -16.083,3.568 -18.528,0.704 -13.389,-3.748 -5.831,-3.718 0,0"
       style="fill:#7cb342;fill-opacity:1;fill-rule:nonzero;stroke:#000000;stroke-width:2;stroke-linecap:round;stroke-linejoin:round;stroke-miterlimit:10;stroke-dasharray:none;stroke-opacity:1"
       transform="matrix(1.3333333,0,0,-1.3333333,533.118,370.9496)"
       clip-path="url(#clipPath123)" />
    <path
       id="path124"
       d="M 0,0 C -7.911,6.455 -17.453,10.532 -27.376,11.695"
       style="fill:none;stroke:#000000;stroke-width:2;stroke-linecap:round;stroke-linejoin:round;stroke-miterlimit:10;stroke-dasharray:none;stroke-opacity:1"
       transform="matrix(1.3333333,0,0,-1.3333333,559.33413,384.73347)"
       clip-path="url(#clipPath125)" />
    <path
       id="path126"
       d="M 0,0 C -3.891,4.806 -9.789,7.558 -15.688,7.318 -21.588,7.079 -27.38,3.854 -31.093,-1.261 -21.907,-8.033 -9.268,-6.988 0,0"
       style="fill:#7cb342;fill-opacity:1;fill-rule:nonzero;stroke:#000000;stroke-width:2;stroke-linecap:round;stroke-linejoin:round;stroke-miterlimit:10;stroke-dasharray:none;stroke-opacity:1"
       transform="matrix(1.3333333,0,0,-1.3333333,571.58547,434.56547)"
       clip-path="url(#clipPath127)" />
    <path
       id="path128"
       d="M 0,0 C -14.087,9.759 -30.589,15.324 -47.345,15.964"
       style="fill:none;stroke:#000000;stroke-width:2;stroke-linecap:round;stroke-linejoin:round;stroke-miterlimit:10;stroke-dasharray:none;stroke-opacity:1"
       transform="matrix(1.3333333,0,0,-1.3333333,617.26387,454.17613)"
       clip-path="url(#clipPath129)" />
    <path
       id="path130"
       d="m 0,0 h -16.04 c 13.832,-10.816 27.48,-21.867 40.96,-33.119 2.269,2.406 4.332,5.036 6.176,7.825 C 20.83,-16.74 10.466,-8.306 0,0"
       style="fill:#7cb342;fill-opacity:1;fill-rule:nonzero;stroke:none"
       transform="matrix(1.3333333,0,0,-1.3333333,192.7332,-0.0068)"
       clip-path="url(#clipPath131)" />
    <path
       id="path132"
       d="M 0,0 C -15.409,13.853 -31.081,27.406 -46.994,40.666 -48.837,37.877 -50.9,35.247 -53.17,32.841 -36.947,19.3 -20.988,5.444 -5.291,-8.703 -3.277,-5.985 -1.571,-3.04 0,0 Z"
       style="fill:#7cb342;fill-opacity:1;fill-rule:nonzero;stroke:none"
       transform="matrix(1.3333333,0,0,-1.3333333,296.85307,87.939867)"
       clip-path="url(#clipPath133)" />
    <path
       id="path134"
       d="m 0,0 c -1.572,-3.04 -3.278,-5.985 -5.291,-8.703 15.369,-13.851 30.479,-27.988 45.327,-42.397 1.953,2.828 3.576,5.871 5.106,8.966 C 30.349,-27.819 15.31,-13.76 0,0"
       style="fill:#7cb342;fill-opacity:1;fill-rule:nonzero;stroke:none"
       transform="matrix(1.3333333,0,0,-1.3333333,296.85373,87.939867)"
       clip-path="url(#clipPath135)" />
    <path
       id="path136"
       d="m 0,0 c -1.529,-3.095 -3.152,-6.138 -5.105,-8.966 14.307,-13.885 28.371,-28.022 42.173,-42.41 5.207,-5.43 10.365,-10.908 15.498,-16.407 2.165,2.668 4.06,5.509 5.801,8.435 C 39.402,-39.088 19.94,-19.297 0,0"
       style="fill:#7cb342;fill-opacity:1;fill-rule:nonzero;stroke:none"
       transform="matrix(1.3333333,0,0,-1.3333333,357.04253,144.11893)"
       clip-path="url(#clipPath137)" />
    <path
       id="path138"
       d="m 0,0 c -1.741,-2.927 -3.636,-5.768 -5.801,-8.436 15.261,-16.346 30.189,-33.002 44.787,-49.943 2.357,2.48 4.454,5.144 6.334,7.964 C 30.553,-33.309 15.443,-16.498 0,0"
       style="fill:#7cb342;fill-opacity:1;fill-rule:nonzero;stroke:none"
       transform="matrix(1.3333333,0,0,-1.3333333,434.86533,223.24907)"
       clip-path="url(#clipPath139)" />
    <path
       id="path140"
       d="m 0,0 c -14.429,18.187 -29.239,36.071 -44.41,53.644 -1.88,-2.82 -3.978,-5.485 -6.334,-7.964 14.929,-17.324 29.499,-34.954 43.708,-52.872 2.97,1.497 5.831,3.265 8.562,5.248 C 1.016,-1.298 0.513,-0.645 0,0"
       style="fill:#7cb342;fill-opacity:1;fill-rule:nonzero;stroke:none"
       transform="matrix(1.3333333,0,0,-1.3333333,554.506,361.99387)"
       clip-path="url(#clipPath141)" />
    <path
       id="path142"
       d="m 0,0 c -2.731,-1.982 -5.593,-3.751 -8.563,-5.248 10.917,-13.766 21.605,-27.713 32.084,-41.815 3.374,0.792 6.507,2.199 9.388,4.052 C 22.168,-28.501 11.199,-14.16 0,0"
       style="fill:#7cb342;fill-opacity:1;fill-rule:nonzero;stroke:none"
       transform="matrix(1.3333333,0,0,-1.3333333,556.5412,364.5864)"
       clip-path="url(#clipPath143)" />
    <path
       id="path144"
       d="m 0,0 c -2.881,-1.854 -6.015,-3.261 -9.389,-4.053 10.635,-14.312 21.042,-28.796 31.213,-43.443 1.928,3.331 3.539,6.784 4.914,10.332 C 17.993,-24.657 9.081,-12.267 0,0"
       style="fill:#7cb342;fill-opacity:1;fill-rule:nonzero;stroke:none"
       transform="matrix(1.3333333,0,0,-1.3333333,600.42013,421.934)"
       clip-path="url(#clipPath145)" />
    <path
       id="path146"
       d="m 0,0 c -1.375,-3.548 -2.986,-7.001 -4.914,-10.332 3.013,-4.339 6.011,-8.689 8.98,-13.059 6.401,-9.41 12.691,-18.88 18.88,-28.42 v 18.14 c -1.117,1.686 -2.239,3.368 -3.363,5.05 C 13.155,-19.014 6.625,-9.474 0,0"
       style="fill:#7cb342;fill-opacity:1;fill-rule:nonzero;stroke:none"
       transform="matrix(1.3333333,0,0,-1.3333333,636.07107,471.48613)"
       clip-path="url(#clipPath147)" />
    <path
       id="path148"
       d="m 0,0 c 2.743,-1.958 5.413,-4.008 8.121,-6.013 2.683,-2.035 5.36,-4.079 8.012,-6.155 2.665,-2.06 5.3,-4.157 7.938,-6.25 2.646,-2.084 5.248,-4.223 7.874,-6.332 l -1.357,-0.08 c 2.226,2.388 4.28,4.947 6.093,7.676 l 0.187,-1.272 c -4.356,3.612 -8.681,7.262 -12.977,10.949 -2.134,1.862 -4.289,3.696 -6.396,5.593 -2.113,1.888 -4.246,3.753 -6.326,5.684 2.306,-1.649 4.559,-3.366 6.832,-5.058 2.279,-1.685 4.509,-3.431 6.762,-5.151 4.475,-3.475 8.923,-6.986 13.339,-10.536 l 0.67,-0.539 -0.483,-0.734 c -1.856,-2.821 -3.919,-5.52 -6.258,-7.973 l -0.642,-0.672 -0.715,0.591 c -2.592,2.143 -5.209,4.256 -7.781,6.424 -2.58,2.159 -5.164,4.313 -7.717,6.505 -2.567,2.176 -5.108,4.384 -7.642,6.6 C 5.023,-4.496 2.475,-2.294 0,0"
       style="fill:#000000;fill-opacity:1;fill-rule:nonzero;stroke:none"
       transform="matrix(1.3333333,0,0,-1.3333333,184.2144,10.137067)"
       clip-path="url(#clipPath149)" />
    <path
       id="path150"
       d="M 0,0 C -15.409,13.853 -31.081,27.406 -46.994,40.666 -48.837,37.877 -50.9,35.247 -53.17,32.841 -36.947,19.3 -20.988,5.444 -5.291,-8.703 -3.277,-5.985 -1.571,-3.04 0,0 Z"
       style="fill:none;stroke:#000000;stroke-width:2;stroke-linecap:butt;stroke-linejoin:miter;stroke-miterlimit:10;stroke-dasharray:none;stroke-opacity:1"
       transform="matrix(1.3333333,0,0,-1.3333333,296.85307,87.939867)"
       clip-path="url(#clipPath151)" />
    <path
       id="path152"
       d="m 0,0 c -1.572,-3.04 -3.278,-5.985 -5.291,-8.703 15.369,-13.851 30.479,-27.988 45.327,-42.397 1.953,2.828 3.576,5.871 5.106,8.966 C 30.349,-27.819 15.31,-13.76 0,0 Z"
       style="fill:none;stroke:#000000;stroke-width:2;stroke-linecap:butt;stroke-linejoin:miter;stroke-miterlimit:10;stroke-dasharray:none;stroke-opacity:1"
       transform="matrix(1.3333333,0,0,-1.3333333,296.85373,87.939867)"
       clip-path="url(#clipPath153)" />
    <path
       id="path154"
       d="m 0,0 c -1.529,-3.095 -3.152,-6.138 -5.105,-8.966 14.307,-13.885 28.371,-28.022 42.173,-42.41 5.207,-5.43 10.365,-10.908 15.498,-16.407 2.165,2.668 4.06,5.509 5.801,8.435 C 39.402,-39.088 19.94,-19.297 0,0 Z"
       style="fill:none;stroke:#000000;stroke-width:2;stroke-linecap:butt;stroke-linejoin:miter;stroke-miterlimit:10;stroke-dasharray:none;stroke-opacity:1"
       transform="matrix(1.3333333,0,0,-1.3333333,357.04253,144.11893)"
       clip-path="url(#clipPath155)" />
    <path
       id="path156"
       d="m 0,0 c -1.741,-2.927 -3.636,-5.768 -5.801,-8.436 15.261,-16.346 30.189,-33.002 44.787,-49.943 2.357,2.48 4.454,5.144 6.334,7.964 C 30.553,-33.309 15.443,-16.498 0,0 Z"
       style="fill:none;stroke:#000000;stroke-width:2;stroke-linecap:butt;stroke-linejoin:miter;stroke-miterlimit:10;stroke-dasharray:none;stroke-opacity:1"
       transform="matrix(1.3333333,0,0,-1.3333333,434.86533,223.24907)"
       clip-path="url(#clipPath157)" />
    <path
       id="path158"
       d="m 0,0 c -14.429,18.187 -29.239,36.071 -44.41,53.644 -1.88,-2.82 -3.978,-5.485 -6.334,-7.964 14.929,-17.324 29.499,-34.954 43.708,-52.872 2.97,1.497 5.831,3.265 8.562,5.248 C 1.016,-1.298 0.513,-0.645 0,0 Z"
       style="fill:none;stroke:#000000;stroke-width:2;stroke-linecap:butt;stroke-linejoin:miter;stroke-miterlimit:10;stroke-dasharray:none;stroke-opacity:1"
       transform="matrix(1.3333333,0,0,-1.3333333,554.506,361.99387)"
       clip-path="url(#clipPath159)" />
    <path
       id="path160"
       d="m 0,0 c -2.731,-1.982 -5.593,-3.751 -8.563,-5.248 10.917,-13.766 21.605,-27.713 32.084,-41.815 3.374,0.792 6.507,2.199 9.388,4.052 C 22.168,-28.501 11.199,-14.16 0,0 Z"
       style="fill:none;stroke:#000000;stroke-width:2;stroke-linecap:butt;stroke-linejoin:miter;stroke-miterlimit:10;stroke-dasharray:none;stroke-opacity:1"
       transform="matrix(1.3333333,0,0,-1.3333333,556.5412,364.5864)"
       clip-path="url(#clipPath161)" />
    <path
       id="path162"
       d="m 0,0 c -2.881,-1.854 -6.015,-3.261 -9.389,-4.053 10.635,-14.312 21.042,-28.796 31.213,-43.443 1.928,3.331 3.539,6.784 4.914,10.332 C 17.993,-24.657 9.081,-12.267 0,0 Z"
       style="fill:none;stroke:#000000;stroke-width:2;stroke-linecap:butt;stroke-linejoin:miter;stroke-miterlimit:10;stroke-dasharray:none;stroke-opacity:1"
       transform="matrix(1.3333333,0,0,-1.3333333,600.42013,421.934)"
       clip-path="url(#clipPath163)" />
    <path
       id="path164"
       d="m 0,0 c -1.765,2.296 -3.475,4.628 -5.196,6.952 -1.731,2.318 -3.427,4.657 -5.118,7 -3.382,4.687 -6.721,9.402 -10.03,14.137 l 1.626,0.196 c -1.344,-3.617 -3,-7.128 -4.921,-10.492 l -0.044,1.061 7.057,-10.317 c 1.174,-1.721 2.321,-3.459 3.445,-5.214 l 3.383,-5.257 c 2.247,-3.508 4.468,-7.035 6.671,-10.571 2.164,-3.563 4.383,-7.088 6.49,-10.684 -2.501,3.34 -4.889,6.752 -7.334,10.126 -2.404,3.401 -4.793,6.811 -7.154,10.239 -2.387,3.41 -4.661,6.895 -7.086,10.279 l -7.101,10.269 -0.361,0.522 0.318,0.54 c 1.904,3.244 3.494,6.67 4.907,10.17 l 0.661,1.638 0.965,-1.442 c 3.219,-4.804 6.408,-9.631 9.553,-14.484 1.573,-2.428 3.14,-4.857 4.674,-7.31 C -3.054,4.911 -1.499,2.474 0,0"
       style="fill:#000000;fill-opacity:1;fill-rule:nonzero;stroke:none"
       transform="matrix(1.3333333,0,0,-1.3333333,662.18187,509.6476)"
       clip-path="url(#clipPath165)" />
    <path
       id="path166"
       d="m 0,0 c 3.237,-1.914 6.307,-4.087 9.262,-6.403 2.965,-2.307 5.786,-4.793 8.514,-7.376 2.703,-2.609 5.311,-5.318 7.746,-8.177 2.446,-2.85 4.752,-5.82 6.805,-8.971 -2.695,2.621 -5.309,5.281 -7.948,7.909 -2.648,2.62 -5.286,5.238 -7.984,7.795 -2.673,2.584 -5.406,5.105 -8.139,7.635 C 5.513,-5.068 2.739,-2.575 0,0"
       style="fill:#d4e157;fill-opacity:1;fill-rule:nonzero;stroke:none"
       transform="matrix(1.3333333,0,0,-1.3333333,361.7404,157.99653)"
       clip-path="url(#clipPath167)" />
    <path
       id="path168"
       d="m 0,0 c 1.199,-0.621 2.259,-1.379 3.269,-2.188 1.009,-0.809 1.97,-1.666 2.875,-2.579 0.91,-0.908 1.758,-1.876 2.561,-2.89 0.802,-1.015 1.554,-2.08 2.164,-3.285 -1.201,0.618 -2.262,1.377 -3.271,2.185 -1.008,0.81 -1.971,1.666 -2.872,2.581 -0.908,0.911 -1.758,1.878 -2.56,2.892 C 1.364,-2.268 0.612,-1.204 0,0"
       style="fill:#d4e157;fill-opacity:1;fill-rule:nonzero;stroke:none"
       transform="matrix(1.3333333,0,0,-1.3333333,409.94093,208.67947)"
       clip-path="url(#clipPath169)" />
    <path
       id="path170"
       d="m 0,0 c 2.001,-1.57 3.855,-3.272 5.658,-5.022 1.814,-1.741 3.54,-3.561 5.249,-5.397 1.683,-1.861 3.347,-3.739 4.924,-5.695 1.587,-1.948 3.122,-3.945 4.511,-6.075 -2.002,1.568 -3.858,3.27 -5.661,5.02 -1.813,1.742 -3.538,3.562 -5.246,5.399 C 7.754,-9.907 6.09,-8.029 4.513,-6.073 2.926,-4.124 1.391,-2.129 0,0"
       style="fill:#d4e157;fill-opacity:1;fill-rule:nonzero;stroke:none"
       transform="matrix(1.3333333,0,0,-1.3333333,437.73253,232.7804)"
       clip-path="url(#clipPath171)" />
    <path
       id="path172"
       d="M 0,0 C 0.818,-0.259 1.483,-0.662 2.115,-1.098 2.736,-1.542 3.301,-2.041 3.816,-2.585 4.333,-3.129 4.798,-3.721 5.207,-4.367 5.606,-5.021 5.97,-5.71 6.18,-6.543 5.36,-6.286 4.693,-5.884 4.063,-5.447 3.441,-5.002 2.877,-4.504 2.363,-3.958 1.85,-3.412 1.384,-2.82 0.976,-2.174 0.576,-1.519 0.212,-0.831 0,0"
       style="fill:#d4e157;fill-opacity:1;fill-rule:nonzero;stroke:none"
       transform="matrix(1.3333333,0,0,-1.3333333,468.35107,271.9236)"
       clip-path="url(#clipPath173)" />
    <path
       id="path174"
       d="m 0,0 c 2.268,-2.26 4.38,-4.641 6.437,-7.064 2.066,-2.416 4.04,-4.903 5.996,-7.404 1.926,-2.524 3.833,-5.063 5.647,-7.673 1.824,-2.603 3.593,-5.248 5.203,-8.016 -2.269,2.259 -4.382,4.639 -6.438,7.062 -2.066,2.416 -4.04,4.903 -5.994,7.406 -1.925,2.525 -3.831,5.064 -5.646,7.675 C 3.382,-5.412 1.612,-2.766 0,0"
       style="fill:#d4e157;fill-opacity:1;fill-rule:nonzero;stroke:none"
       transform="matrix(1.3333333,0,0,-1.3333333,495.70267,301.81227)"
       clip-path="url(#clipPath175)" />
    <path
       id="path176"
       d="m 0,0 c 0.759,-0.2 1.364,-0.543 1.936,-0.919 0.56,-0.384 1.065,-0.822 1.52,-1.306 0.455,-0.483 0.86,-1.015 1.207,-1.6 0.339,-0.593 0.642,-1.22 0.79,-1.991 C 4.693,-5.618 4.086,-5.276 3.517,-4.9 2.955,-4.516 2.45,-4.078 1.997,-3.592 1.544,-3.106 1.14,-2.575 0.792,-1.99 0.454,-1.396 0.15,-0.771 0,0"
       style="fill:#d4e157;fill-opacity:1;fill-rule:nonzero;stroke:none"
       transform="matrix(1.3333333,0,0,-1.3333333,534.26773,347.04853)"
       clip-path="url(#clipPath177)" />
    <path
       id="path178"
       d="m 0,0 c 1.492,-1.466 2.82,-3.042 4.092,-4.657 1.27,-1.615 2.484,-3.27 3.633,-4.968 1.153,-1.694 2.237,-3.437 3.266,-5.216 1.028,-1.779 1.997,-3.598 2.802,-5.53 -1.494,1.465 -2.824,3.04 -4.095,4.655 -1.269,1.616 -2.484,3.27 -3.63,4.97 -1.15,1.697 -2.235,3.438 -3.263,5.218 C 1.777,-3.748 0.807,-1.93 0,0"
       style="fill:#d4e157;fill-opacity:1;fill-rule:nonzero;stroke:none"
       transform="matrix(1.3333333,0,0,-1.3333333,555.30547,374.54333)"
       clip-path="url(#clipPath179)" />
    <path
       id="path180"
       d="m 0,0 c 1.087,-0.75 2.017,-1.619 2.892,-2.53 0.873,-0.912 1.692,-1.866 2.448,-2.866 0.761,-0.997 1.454,-2.044 2.096,-3.132 0.64,-1.088 1.223,-2.22 1.649,-3.471 -1.089,0.749 -2.02,1.617 -2.894,2.529 C 5.318,-8.558 4.498,-7.605 3.745,-6.603 2.987,-5.604 2.292,-4.557 1.651,-3.469 1.012,-2.38 0.428,-1.25 0,0"
       style="fill:#d4e157;fill-opacity:1;fill-rule:nonzero;stroke:none"
       transform="matrix(1.3333333,0,0,-1.3333333,575.98133,397.43267)"
       clip-path="url(#clipPath181)" />
    <path
       id="path182"
       d="m 0,0 c 1.585,-1.407 3.012,-2.934 4.384,-4.501 1.371,-1.568 2.687,-3.178 3.94,-4.836 1.259,-1.653 2.449,-3.358 3.589,-5.102 1.138,-1.746 2.219,-3.533 3.141,-5.441 -1.586,1.405 -3.014,2.931 -4.385,4.499 -1.37,1.568 -2.689,3.177 -3.939,4.837 C 5.475,-8.888 4.282,-7.185 3.144,-5.439 2.007,-3.694 0.925,-1.907 0,0"
       style="fill:#d4e157;fill-opacity:1;fill-rule:nonzero;stroke:none"
       transform="matrix(1.3333333,0,0,-1.3333333,600.66227,432.8428)"
       clip-path="url(#clipPath183)" />
    <path
       id="path184"
       d="M 0,0 C 0.615,-0.157 1.059,-0.433 1.463,-0.735 1.855,-1.046 2.185,-1.401 2.458,-1.794 2.732,-2.188 2.948,-2.62 3.101,-3.097 3.243,-3.581 3.344,-4.094 3.271,-4.727 2.655,-4.57 2.21,-4.296 1.808,-3.992 1.414,-3.682 1.086,-3.327 0.814,-2.933 0.543,-2.538 0.326,-2.105 0.174,-1.628 0.032,-1.144 -0.069,-0.631 0,0"
       style="fill:#d4e157;fill-opacity:1;fill-rule:nonzero;stroke:none"
       transform="matrix(1.3333333,0,0,-1.3333333,624.4188,470.158)"
       clip-path="url(#clipPath185)" />
    <path
       id="path186"
       d="M 0,0 C 0.696,-0.234 1.226,-0.595 1.717,-0.984 2.198,-1.381 2.616,-1.824 2.98,-2.309 3.346,-2.792 3.654,-3.317 3.9,-3.891 4.137,-4.47 4.334,-5.08 4.362,-5.816 3.663,-5.583 3.133,-5.224 2.643,-4.834 2.161,-4.437 1.743,-3.993 1.381,-3.508 1.019,-3.022 0.71,-2.497 0.464,-1.924 0.228,-1.344 0.03,-0.734 0,0"
       style="fill:#d4e157;fill-opacity:1;fill-rule:nonzero;stroke:none"
       transform="matrix(1.3333333,0,0,-1.3333333,643.8068,493.908)"
       clip-path="url(#clipPath187)" />
    <path
       id="path188"
       d="M 0,0 C 0.874,-0.439 1.583,-1.008 2.254,-1.606 2.915,-2.212 3.515,-2.866 4.061,-3.563 4.608,-4.258 5.1,-4.996 5.53,-5.783 5.951,-6.577 6.332,-7.402 6.548,-8.357 5.673,-7.919 4.962,-7.352 4.292,-6.753 3.631,-6.146 3.031,-5.492 2.487,-4.795 1.942,-4.098 1.45,-3.359 1.021,-2.572 0.601,-1.777 0.218,-0.953 0,0"
       style="fill:#d4e157;fill-opacity:1;fill-rule:nonzero;stroke:none"
       transform="matrix(1.3333333,0,0,-1.3333333,655.00987,513.73613)"
       clip-path="url(#clipPath189)" />
    <path
       id="path190"
       d="m 0,0 c 1.995,-1.212 3.858,-2.572 5.675,-3.984 1.826,-1.403 3.575,-2.893 5.308,-4.401 1.708,-1.535 3.4,-3.089 5.015,-4.73 1.622,-1.632 3.198,-3.317 4.643,-5.151 -1.996,1.21 -3.861,2.57 -5.678,3.982 -1.825,1.403 -3.573,2.893 -5.305,4.403 -1.707,1.537 -3.399,3.09 -5.013,4.732 C 3.022,-3.517 1.446,-1.832 0,0"
       style="fill:#d4e157;fill-opacity:1;fill-rule:nonzero;stroke:none"
       transform="matrix(1.3333333,0,0,-1.3333333,318.02293,118.7868)"
       clip-path="url(#clipPath191)" />
    <path
       id="path192"
       d="M 0,0 C 1.106,-0.488 2.067,-1.127 2.996,-1.801 3.915,-2.484 4.779,-3.223 5.597,-4.01 6.416,-4.798 7.185,-5.635 7.9,-6.529 8.608,-7.431 9.28,-8.37 9.806,-9.46 8.698,-8.973 7.736,-8.335 6.809,-7.661 5.89,-6.978 5.025,-6.239 4.209,-5.449 3.393,-4.66 2.623,-3.823 1.907,-2.929 1.201,-2.026 0.528,-1.088 0,0"
       style="fill:#d4e157;fill-opacity:1;fill-rule:nonzero;stroke:none"
       transform="matrix(1.3333333,0,0,-1.3333333,302.23387,98.273867)"
       clip-path="url(#clipPath193)" />
    <path
       id="path194"
       d="m 0,0 c 1.731,-0.795 3.344,-1.747 4.915,-2.754 1.569,-1.009 3.098,-2.071 4.578,-3.197 1.485,-1.121 2.918,-2.309 4.312,-3.549 1.393,-1.241 2.743,-2.539 3.972,-3.995 -1.733,0.793 -3.346,1.744 -4.916,2.752 -1.569,1.009 -3.098,2.071 -4.577,3.2 -1.482,1.123 -2.917,2.309 -4.31,3.55 C 2.582,-2.751 1.231,-1.454 0,0"
       style="fill:#d4e157;fill-opacity:1;fill-rule:nonzero;stroke:none"
       transform="matrix(1.3333333,0,0,-1.3333333,255.2144,63.8324)"
       clip-path="url(#clipPath195)" />
    <path
       id="path196"
       d="M 0,0 C -0.812,0.134 -1.49,0.429 -2.138,0.761 -2.777,1.103 -3.366,1.505 -3.912,1.958 -4.458,2.411 -4.959,2.918 -5.411,3.485 -5.855,4.062 -6.267,4.676 -6.543,5.453 -5.73,5.32 -5.051,5.026 -4.404,4.693 -3.765,4.352 -3.176,3.95 -2.632,3.494 -2.087,3.039 -1.586,2.532 -1.134,1.965 -0.691,1.388 -0.279,0.774 0,0"
       style="fill:#d4e157;fill-opacity:1;fill-rule:nonzero;stroke:none"
       transform="matrix(1.3333333,0,0,-1.3333333,255.09133,57.2088)"
       clip-path="url(#clipPath197)" />
    <path
       id="path198"
       d="M 0,0 C 0.845,-0.083 1.57,-0.336 2.267,-0.629 2.957,-0.933 3.603,-1.301 4.209,-1.724 4.816,-2.146 5.383,-2.626 5.905,-3.17 6.42,-3.724 6.906,-4.319 7.272,-5.086 6.426,-5.005 5.701,-4.753 5.004,-4.459 4.313,-4.155 3.668,-3.787 3.063,-3.362 2.458,-2.938 1.891,-2.458 1.369,-1.914 0.854,-1.359 0.367,-0.765 0,0"
       style="fill:#d4e157;fill-opacity:1;fill-rule:nonzero;stroke:none"
       transform="matrix(1.3333333,0,0,-1.3333333,232.40187,43.992533)"
       clip-path="url(#clipPath199)" />
    <path
       id="path200"
       d="m 0,0 c 1.988,-0.717 3.856,-1.687 5.642,-2.783 1.786,-1.098 3.494,-2.325 5.1,-3.675 1.609,-1.344 3.112,-2.815 4.504,-4.383 1.39,-1.569 2.668,-3.242 3.716,-5.077 -1.675,1.287 -3.242,2.63 -4.809,3.962 L 9.456,-7.989 4.737,-4.048 C 3.154,-2.734 1.559,-1.424 0,0"
       style="fill:#d4e157;fill-opacity:1;fill-rule:nonzero;stroke:none"
       transform="matrix(1.3333333,0,0,-1.3333333,189.13173,6.8721333)"
       clip-path="url(#clipPath201)" />
    <path
       id="path202"
       d="m 0,0 c 0.802,-0.083 1.479,-0.334 2.126,-0.623 0.64,-0.299 1.232,-0.661 1.784,-1.076 0.552,-0.415 1.062,-0.886 1.525,-1.419 0.456,-0.543 0.881,-1.126 1.18,-1.877 -0.804,0.082 -1.481,0.332 -2.128,0.621 -0.639,0.3 -1.232,0.662 -1.782,1.079 -0.55,0.417 -1.06,0.888 -1.523,1.421 C 0.727,-1.331 0.3,-0.749 0,0"
       style="fill:#d4e157;fill-opacity:1;fill-rule:nonzero;stroke:none"
       transform="matrix(1.3333333,0,0,-1.3333333,218.78733,26.126)"
       clip-path="url(#clipPath203)" />
    <path
       id="path204"
       d="m 0,0 c 2.055,2.579 7.755,6.068 11.214,7.441 1.2,0.476 2.902,0.782 4.734,-0.377 1.243,-0.786 2.084,-2.016 2.32,-2.997 0.236,-0.981 -0.021,-1.765 -0.31,-2.503 -1.592,-4.06 -4.2,-7.501 -7.714,-10.18"
       style="fill:#424242;fill-opacity:1;fill-rule:nonzero;stroke:#000000;stroke-width:2;stroke-linecap:round;stroke-linejoin:round;stroke-miterlimit:10;stroke-dasharray:none;stroke-opacity:1"
       transform="matrix(1.3333333,0,0,-1.3333333,374.69867,191.2244)"
       clip-path="url(#clipPath205)" />
    <path
       id="path206"
       d="M 0,0 C 4.808,-4.319 6.812,-11.507 4.935,-17.691"
       style="fill:none;stroke:#000000;stroke-width:2;stroke-linecap:round;stroke-linejoin:round;stroke-miterlimit:10;stroke-dasharray:none;stroke-opacity:1"
       transform="matrix(1.3333333,0,0,-1.3333333,388.53467,202.67613)"
       clip-path="url(#clipPath207)" />
  </g>
</svg>
